<svg viewBox="0 0 98.74 100">
    <path d="M75.58 86.29A70.73 70.73 0 0 0 65.35 41a50.2 50.2 0 0 1-4.5 15.29 70.36 70.36 0 0 1-25.26 29.23A70.6 70.6 0 0 0 18.53 31a55.81 55.81 0 0 0-10.08-8.83 50 50 0 1 0 90.29 39.05 70.51 70.51 0 0 1-23.16 25.07z" fill="#095bc9"/>
    <path d="M21.72 15.15c4.41 2.33 8.46 6.58 11.45 10.56a71.53 71.53 0 0 1 13 30s4.47-6.11 6.27-18.06A41 41 0 0 0 52.52 26a36.64 36.64 0 0 0-4.73-14l-.12-.21a39 39 0 0 1 14 4.1c4.41 2.31 8.46 6.58 11.45 10.56a71.48 71.48 0 0 1 13 30s4.47-6.12 6.27-18.06a40.65 40.65 0 0 0-.78-16.15 50 50 0 0 0-75.15-9.4 35.8 35.8 0 0 1 5.26 2.31z" fill="#29a9e0"/>
</svg>
