<svg viewBox="0 0 1024 1024" version="1.1">
    <title>404</title>
    <defs>
        <linearGradient x1="-13.5823507%" y1="50%" x2="50%" y2="47.2031971%" id="linearGradient-1">
            <stop stop-color="#98D6FA" offset="0%"></stop>
            <stop stop-color="#47B0F1" offset="100%"></stop>
        </linearGradient>
        <linearGradient x1="-9.33772794e-14%" y1="-3.10559006%" x2="100%" y2="-3.10559006%" id="linearGradient-2">
            <stop stop-color="#FFF5DE" offset="0%"></stop>
            <stop stop-color="#FBD2AC" offset="100%"></stop>
        </linearGradient>
        <linearGradient x1="-13.5823507%" y1="50%" x2="50%" y2="47.6284444%" id="linearGradient-3">
            <stop stop-color="#98D6FA" offset="0%"></stop>
            <stop stop-color="#47B0F1" offset="100%"></stop>
        </linearGradient>
        <linearGradient x1="-13.5823507%" y1="50%" x2="50%" y2="47.629463%" id="linearGradient-4">
            <stop stop-color="#98D6FA" offset="0%"></stop>
            <stop stop-color="#47B0F1" offset="100%"></stop>
        </linearGradient>
        <linearGradient x1="-13.5823507%" y1="50%" x2="50%" y2="47.6298828%" id="linearGradient-5">
            <stop stop-color="#98D6FA" offset="0%"></stop>
            <stop stop-color="#47B0F1" offset="100%"></stop>
        </linearGradient>
        <linearGradient x1="-13.5823507%" y1="50%" x2="50%" y2="43.4230204%" id="linearGradient-6">
            <stop stop-color="#98D6FA" offset="0%"></stop>
            <stop stop-color="#47B0F1" offset="100%"></stop>
        </linearGradient>
        <linearGradient x1="43.1398925%" y1="-6.4516129%" x2="60.3365636%" y2="0%" id="linearGradient-7">
            <stop stop-color="#AFDEF9" offset="3.15726754%"></stop>
            <stop stop-color="#7CC9F9" offset="100%"></stop>
        </linearGradient>
        <linearGradient x1="5.92025809%" y1="60.8571499%" x2="59.966368%" y2="37.0542203%" id="linearGradient-8">
            <stop stop-color="#98D6FA" offset="0%"></stop>
            <stop stop-color="#47B0F1" offset="100%"></stop>
        </linearGradient>
        <linearGradient x1="44.4926371%" y1="-6.4516129%" x2="58.2982966%" y2="0%" id="linearGradient-9">
            <stop stop-color="#AFDEF9" offset="3.15726754%"></stop>
            <stop stop-color="#7CC9F9" offset="100%"></stop>
        </linearGradient>
        <linearGradient x1="28.4038852%" y1="87.0084871%" x2="50%" y2="30.4810963%" id="linearGradient-10">
            <stop stop-color="#98D6FA" offset="0%"></stop>
            <stop stop-color="#47B0F1" offset="100%"></stop>
        </linearGradient>
        <linearGradient x1="0%" y1="-11.7647059%" x2="100%" y2="-11.7647059%" id="linearGradient-11">
            <stop stop-color="#F5DDA7" offset="0%"></stop>
            <stop stop-color="#FA9A41" offset="100%"></stop>
        </linearGradient>
        <linearGradient x1="11.0933605%" y1="87.0084871%" x2="50%" y2="30.4810963%" id="linearGradient-12">
            <stop stop-color="#98D6FA" offset="0%"></stop>
            <stop stop-color="#47B0F1" offset="100%"></stop>
        </linearGradient>
        <linearGradient x1="7.47760058%" y1="17.8321853%" x2="85.3244818%" y2="80.9802829%" id="linearGradient-13">
            <stop stop-color="#98D6FA" offset="0%"></stop>
            <stop stop-color="#47B0F1" offset="100%"></stop>
        </linearGradient>
        <linearGradient x1="13.965733%" y1="7.49141546%" x2="87.5196979%" y2="107.502359%" id="linearGradient-14">
            <stop stop-color="#FFB859" offset="0%"></stop>
            <stop stop-color="#F97B61" offset="100%"></stop>
        </linearGradient>
        <linearGradient x1="2.07516348%" y1="87.0084871%" x2="50%" y2="30.4810963%" id="linearGradient-15">
            <stop stop-color="#98D6FA" offset="0%"></stop>
            <stop stop-color="#47B0F1" offset="100%"></stop>
        </linearGradient>
        <linearGradient x1="100%" y1="-2.96987539%" x2="0.581465918%" y2="-2.96987539%" id="linearGradient-16">
            <stop stop-color="#F97B61" offset="0%"></stop>
            <stop stop-color="#FFB859" offset="100%"></stop>
        </linearGradient>
        <linearGradient x1="100%" y1="-2.96987539%" x2="0.581465918%" y2="-2.96987539%" id="linearGradient-17">
            <stop stop-color="#F97B61" offset="0%"></stop>
            <stop stop-color="#FFB859" offset="100%"></stop>
        </linearGradient>
        <linearGradient x1="100%" y1="-2.96987539%" x2="0.581465918%" y2="-2.96987539%" id="linearGradient-18">
            <stop stop-color="#FFB859" offset="0%"></stop>
            <stop stop-color="#F97B61" offset="100%"></stop>
        </linearGradient>
        <linearGradient x1="100%" y1="-2.96987539%" x2="0.581465918%" y2="-2.96987539%" id="linearGradient-19">
            <stop stop-color="#FFB859" offset="0%"></stop>
            <stop stop-color="#F97B61" offset="100%"></stop>
        </linearGradient>
        <linearGradient x1="86.2750219%" y1="-2.80504909%" x2="-2.70574742e-12%" y2="-2.80504909%" id="linearGradient-20">
            <stop stop-color="#1D181C" offset="0%"></stop>
            <stop stop-color="#2C2422" offset="30%"></stop>
            <stop stop-color="#42352C" offset="50%"></stop>
            <stop stop-color="#57352C" offset="70%"></stop>
            <stop stop-color="#923629" offset="100%"></stop>
        </linearGradient>
        <linearGradient x1="86.2750219%" y1="-2.80504909%" x2="-2.70574742e-12%" y2="-2.80504909%" id="linearGradient-21">
            <stop stop-color="#1D181C" offset="0%"></stop>
            <stop stop-color="#2C2422" offset="30%"></stop>
            <stop stop-color="#42352C" offset="50%"></stop>
            <stop stop-color="#57352C" offset="70%"></stop>
            <stop stop-color="#923629" offset="100%"></stop>
        </linearGradient>
        <linearGradient x1="80.1766865%" y1="78.1244605%" x2="40.1612594%" y2="1.20356745%" id="linearGradient-22">
            <stop stop-color="#98D6FA" offset="0%"></stop>
            <stop stop-color="#47B0F1" offset="100%"></stop>
        </linearGradient>
        <linearGradient x1="16.9636606%" y1="77.6033014%" x2="73.1106367%" y2="27.3104148%" id="linearGradient-23">
            <stop stop-color="#98D6FA" offset="0%"></stop>
            <stop stop-color="#47B0F1" offset="100%"></stop>
        </linearGradient>
        <linearGradient x1="0%" y1="66.879116%" x2="84.977599%" y2="36.1255675%" id="linearGradient-24">
            <stop stop-color="#98D6FA" offset="0%"></stop>
            <stop stop-color="#47B0F1" offset="100%"></stop>
        </linearGradient>
        <linearGradient x1="0%" y1="64.3617284%" x2="84.977599%" y2="38.1948302%" id="linearGradient-25">
            <stop stop-color="#98D6FA" offset="0%"></stop>
            <stop stop-color="#47B0F1" offset="100%"></stop>
        </linearGradient>
        <linearGradient x1="0%" y1="63.9354617%" x2="84.977599%" y2="38.5452163%" id="linearGradient-26">
            <stop stop-color="#98D6FA" offset="0%"></stop>
            <stop stop-color="#47B0F1" offset="100%"></stop>
        </linearGradient>
        <linearGradient x1="22.3559231%" y1="-8.91420874%" x2="50%" y2="77.3810542%" id="linearGradient-27">
            <stop stop-color="#98D6FA" offset="0%"></stop>
            <stop stop-color="#47B0F1" offset="100%"></stop>
        </linearGradient>
        <linearGradient x1="45.3627906%" y1="-11.4524647%" x2="50%" y2="78.5607378%" id="linearGradient-28">
            <stop stop-color="#98D6FA" offset="0%"></stop>
            <stop stop-color="#47B0F1" offset="100%"></stop>
        </linearGradient>
        <linearGradient x1="47.7464074%" y1="-11.4524647%" x2="50%" y2="78.5607378%" id="linearGradient-29">
            <stop stop-color="#98D6FA" offset="0%"></stop>
            <stop stop-color="#47B0F1" offset="100%"></stop>
        </linearGradient>
        <linearGradient x1="43.8930824%" y1="-11.4524647%" x2="50%" y2="78.5607378%" id="linearGradient-30">
            <stop stop-color="#98D6FA" offset="0%"></stop>
            <stop stop-color="#47B0F1" offset="100%"></stop>
        </linearGradient>
        <linearGradient x1="0%" y1="77.6033014%" x2="113.227535%" y2="77.6033014%" id="linearGradient-31">
            <stop stop-color="#98D6FA" offset="0%"></stop>
            <stop stop-color="#47B0F1" offset="100%"></stop>
        </linearGradient>
    </defs>
    <g id="404" stroke="none" stroke-width="1" fill="none" fill-rule="evenodd">
        <rect id="矩形" fill="#FFFFFF" opacity="0" x="0" y="0" width="1024" height="1024"></rect>
        <g id="背景" transform="translate(59.074601, 125.000000)" fill-rule="nonzero">
            <path d="M17.7222308,456.766916 C10.0492274,423.67151 -39.8977194,208.146339 101.323307,178.512529 C242.544333,148.878718 325.972947,183.393328 388.023811,123.051676 C450.074675,62.7100235 465.549093,72.613831 516.515601,76.6047879 C567.482109,80.5957448 626.551563,37.0388532 646.400276,23.9553401 C666.248989,10.871827 845.459428,-73.3066327 891.276528,178.512529 C898.517655,287.383698 904.535248,405.496594 853.838362,450.237259 C803.141476,494.977924 854.764528,535.151398 891.276528,539.615502 C927.788527,544.079607 874.206939,620.525811 789.876058,653.901824 C733.805493,679.056083 371.11611,751.180384 153.920174,677.040997 C49.0402653,632.124956 25.3952341,489.862323 17.7222308,456.766916 Z" id="路径-58" fill="#47B0F1" opacity="0.05"></path>
            <path d="M98.9253989,204 L98.9259967,204.150149 C102.349059,204.845285 104.925399,207.871774 104.925399,211.5 L104.925399,212.5 C104.925399,216.642136 101.567535,220 97.4253989,220 L18.4253989,220 C14.2832633,220 10.9253989,216.642136 10.9253989,212.5 L10.9253989,211.5 C10.9253989,207.357864 14.2832633,204 18.4253989,204 L49.9253989,204 C53.7108506,204 56.7944976,200.995217 56.9213399,197.24065 L56.9253989,197 C56.9253989,193.214548 53.9206155,190.130901 50.1660487,190.004059 L49.9253989,190 L46.9253989,190 L46.925805,189.850055 C43.5022422,189.155307 40.9253989,186.12858 40.9253989,182.5 L40.9253989,181.5 C40.9253989,177.357864 44.2832633,174 48.4253989,174 L127.425399,174 C131.567535,174 134.925399,177.357864 134.925399,181.5 L134.925399,182.5 C134.925399,186.642136 131.567535,190 127.425399,190 L95.9253989,190 C92.1399472,190 89.0563002,193.004783 88.9294579,196.75935 L88.9253989,197 C88.9253989,200.785452 91.9301823,203.869099 95.6847492,203.995941 L95.9253989,204 L98.9253989,204 Z" id="形状结合" fill="url(#linearGradient-1)" opacity="0.100000001"></path>
            <path d="M798.925399,34 L798.925997,34.1501485 C802.349059,34.845285 804.925399,37.8717743 804.925399,41.5 L804.925399,42.5 C804.925399,46.6421356 801.567535,50 797.425399,50 L718.425399,50 C714.283263,50 710.925399,46.6421356 710.925399,42.5 L710.925399,41.5 C710.925399,37.3578644 714.283263,34 718.425399,34 L749.925399,34 C753.710851,34 756.794498,30.9952166 756.92134,27.2406498 L756.925399,27 C756.925399,23.2145483 753.920616,20.1309013 750.166049,20.004059 L749.925399,20 L746.925399,20 L746.925805,19.8500552 C743.502242,19.1553066 740.925399,16.1285803 740.925399,12.5 L740.925399,11.5 C740.925399,7.35786438 744.283263,4 748.425399,4 L827.425399,4 C831.567535,4 834.925399,7.35786438 834.925399,11.5 L834.925399,12.5 C834.925399,16.6421356 831.567535,20 827.425399,20 L795.925399,20 C792.139947,20 789.0563,23.0047834 788.929458,26.7593502 L788.925399,27 C788.925399,30.7854517 791.930182,33.8690987 795.684749,33.995941 L795.925399,34 L798.925399,34 Z" id="形状结合" fill="url(#linearGradient-1)" opacity="0.100000001"></path>
            <path d="M455.44197,587 C586.546603,587 704.70322,597.788312 787.228344,615.013362 C867.989145,615.660019 932.925399,640.030791 932.925399,670 C932.925399,694.229977 890.47882,714.80045 831.536221,722.132354 C818.569443,725.884939 804.130297,729.433119 788.378638,732.745641 C788.740426,734.812004 788.925399,736.897944 788.925399,739 C788.925399,790.914766 676.101156,833 536.925399,833 C412.272656,833 308.758797,799.239705 288.512758,754.894193 C121.123049,742.128701 2.92539891,710.721174 2.92539891,674 C2.92539891,625.951227 205.292692,587 455.44197,587 Z" id="形状结合" fill="url(#linearGradient-2)"></path>
            <g id="大雁" transform="translate(590.099546, 36.907158)">
                <path d="M37.4312095,64.7423818 L37.4312095,64.6452119 C32.1058219,49.6073265 14.7356607,42.5306746 0,44.7153228 C10.9264423,37.9201286 28.9638433,36.1107574 37.4343421,46.5280447 L37.4343421,46.6185133 C45.8923106,36.2916945 64.0268216,38.0139479 74.8686842,44.8057914 C60.1455538,42.7216638 42.77226,49.7882636 37.4343421,64.7356804 L37.4312095,64.7423818 Z" id="路径" fill="url(#linearGradient-3)"></path>
                <path d="M120.860322,52.2014603 L120.860322,52.1377972 C117.160744,41.7138085 105.128501,36.8184542 94.9131541,38.3229128 C102.484602,33.6151969 114.989865,32.3586891 120.860322,39.5794206 L120.860322,39.6430837 C126.730779,32.4860153 139.292428,33.67886 146.80749,38.3865759 C136.592143,36.9424296 124.566165,41.8411347 120.860322,52.2014603 L120.860322,52.2014603 Z" id="路径" fill="url(#linearGradient-4)"></path>
                <path d="M86.0679846,17.7234613 L86.0679846,17.6597983 C82.3684066,7.23580958 70.3361632,2.34045519 60.1208168,3.84491386 C67.6922649,-0.862802022 80.197528,-2.11930982 86.0679846,5.10142166 L86.0679846,5.16508473 C91.9384413,-1.9919837 104.500091,-0.79913896 112.015152,3.90857693 C101.799806,2.46443063 89.7738279,7.3631357 86.0679846,17.7234613 L86.0679846,17.7234613 Z" id="路径" fill="url(#linearGradient-4)"></path>
                <path d="M191.548904,58.1616316 L191.548904,58.1180727 C188.986453,50.8939905 180.641257,47.4963934 173.561624,48.5418079 C178.81183,45.2782383 187.479681,44.4070596 191.548904,49.4129867 L191.548904,49.4565456 C195.621259,44.4941775 204.326702,45.3217973 209.536184,48.5853668 C202.456551,47.5801606 194.111355,50.9811084 191.548904,58.1616316 Z" id="路径" fill="url(#linearGradient-5)"></path>
            </g>
            <g id="绿植" transform="translate(0.000000, 149.157511)">
                <path d="M53.4579208,97.7847305 C18.7211621,88.9919949 5.51519106,98.6448032 13.8400076,126.743156 C17.2768648,135.307054 21.6179554,140.267707 26.8632792,141.625117 C42.2267921,154.803478 51.0916726,165.971312 53.4579208,175.128619 C57.0072929,188.86458 70.6197469,202.733737 96.1649191,188.931178 C113.195034,179.729472 127.390936,187.611424 138.752626,212.577035 C163.918858,236.006441 201.646652,240.485951 251.936008,226.015566 C302.225365,211.545181 294.797427,188.486591 229.652195,156.839796 C212.849853,153.406508 200.181906,151.689865 191.648355,151.689865 C183.114804,151.689865 177.463354,143.374295 174.694005,126.743156 C172.893304,116.34828 164.032796,110.087373 148.11248,107.960436 C132.192164,105.833499 124.547998,99.3505574 125.179981,88.5116107 C112.58823,75.545727 100.290346,75.545727 88.2863266,88.5116107 C76.2823076,101.477494 64.672839,104.568534 53.4579208,97.7847305 Z" id="路径-61" fill="url(#linearGradient-6)" transform="translate(148.112480, 156.545047) rotate(10.000000) translate(-148.112480, -156.545047)"></path>
                <path d="M128.357876,61.8772723 L139.708518,118.792492 C147.102266,107.926046 152.423641,98.4478044 155.672643,90.3577665 C160.484426,78.3763885 149.169419,111.841061 140.173455,121.127486 L149.63639,168.578733 C149.645965,168.513344 149.656389,168.449987 149.667663,168.388661 C162.67777,156.94852 170.895007,148.098659 174.319374,141.839075 C173.679437,146.283538 157.476925,166.540868 150.225374,171.539333 L158.930067,215.183483 C158.957143,214.862431 158.980375,214.651495 158.980375,214.651495 C158.980375,214.651495 170.424065,205.903486 174.319374,199.624769 C174.068987,202.241567 164.305398,213.580138 159.442775,217.757845 L166.625116,253.775222 L161.152021,253.775222 L154.642076,215.683175 C145.056775,213.216902 136.254724,205.490142 132.63269,201.122197 C140.695168,207.831691 147.787135,211.53314 153.908592,212.226545 C154.031116,213.306678 154.243439,214.271485 154.545563,215.120968 L136.214888,107.844899 C136.198618,108.140956 136.168439,108.434419 136.12435,108.725288 C125.50581,100.730628 117.714835,91.8155981 112.751425,81.9801986 C114.522037,81.3968589 119.762198,95.8303018 135.848668,105.71297 L128.357876,61.8772723 Z M103.238822,145.449865 C110.476935,153.117211 124.487041,158.514569 145.269141,161.641939 C145.199057,162.54413 145.199057,163.589954 145.269141,164.779412 C125.05606,162.407149 109.416656,153.794333 103.238822,145.449865 Z" id="形状结合" fill="url(#linearGradient-7)" transform="translate(138.779098, 157.826247) rotate(-45.000000) translate(-138.779098, -157.826247)"></path>
                <path d="M100.496525,13.1192019 C68.3285506,-8.77204952 53.4010573,-3.26680461 55.7140452,29.6349366 C61.9026183,53.2030454 65.9619965,68.9582926 63.9323074,83.4041721 C61.9026183,97.8500517 68.2472324,125.149784 100.496525,136.352578 C121.996053,143.821106 128.034527,154.418116 118.611946,168.143606 C113.881324,189.217665 139.9571,204.343139 196.839274,213.520027 C282.162536,227.285361 261.833383,195.652719 239.897382,161.364899 C224.027229,145.480093 221.903337,135.784371 221.903337,123.644346 C221.903337,111.504321 233.51901,91.6604587 200.14408,83.4041721 C185.486559,80.0715009 177.801522,65.4135325 177.088969,39.4302669 C174.782644,26.3698265 160.791703,23.1047164 135.116145,29.6349366 C123.694555,31.8301289 112.154681,26.324884 100.496525,13.1192019 Z" id="路径-65" fill="url(#linearGradient-8)"></path>
                <path d="M132.265793,14.8667685 L144.366738,70.8957685 L144.50287,70.7771673 C152.074817,64.0828933 156.911496,55.9518327 159.012906,46.3839853 L159.077738,46.0747685 L159.072047,46.1190409 C157.984672,53.6751711 158.206027,63.4270148 144.96281,73.6504051 L155.214738,121.128769 L155.507784,120.971226 C164.596231,115.963306 172.1694,107.249088 178.227291,94.8285717 C177.584791,99.2908322 168.96993,117.022913 155.89698,124.283812 L164.982203,166.350593 C167.636591,164.741196 174.635034,159.979484 178.227291,152.614266 C176.551091,158.07617 173.285119,164.909693 165.6606,169.489893 L179.068008,231.572551 L173.470997,228.842707 L161.516396,166.766296 C141.554906,165.760351 133.721891,158.288622 130.145364,153.975556 C138.030824,160.537738 148.268673,163.661789 160.858911,163.34771 L151.768386,116.140769 C151.776756,116.474589 151.791551,116.821578 151.812772,117.181736 C131.599691,114.809472 113.324572,106.78383 107.146738,98.4393607 C114.384851,106.106707 129.273529,111.308341 151.812772,114.044263 L151.353738,113.987769 L141.225572,61.3832515 C141.208927,61.565688 141.186929,61.7471264 141.159578,61.9275666 C128.078098,56.5155778 119.911352,47.5296205 116.659341,34.9696948 C118.427873,34.3870402 120.784183,50.1179685 140.745474,58.903355 L132.265793,14.8667685 Z" id="形状结合" fill="url(#linearGradient-9)" transform="translate(143.107373, 123.219660) rotate(-26.000000) translate(-143.107373, -123.219660)"></path>
                <path d="M210.126368,14.594686 C222.545375,-2.66511618 233.662578,-0.913530277 243.477977,19.8494437 C248.236888,37.7903021 240.72244,49.1966794 265.298493,57.3519642 C281.682529,62.7888208 284.161791,74.1716616 272.736279,91.5004868 C267.964121,102.404197 271.489923,109.373709 283.313684,112.409024 C295.137446,115.444338 293.715218,127.517382 279.046999,148.628157 C273.962442,160.201369 273.962442,167.934544 279.046999,171.827682 C286.673836,177.66739 301.328876,195.179148 283.313684,229.219126 C265.298493,263.259105 222.853604,236.822667 216.489986,220.818047 C210.126368,204.813427 222.853604,182.767143 216.489986,171.827682 C210.126368,160.888221 173.02471,157.12147 182.93685,124.310978 C191.186456,110.887444 202.671075,107.007173 191.140868,84.150088 C179.610661,61.2930028 176.683549,70.4768325 191.140868,47.9608957 C197.453469,41.4908822 203.781969,30.3688123 210.126368,14.594686 Z" id="路径-96" fill="url(#linearGradient-10)"></path>
                <path d="M227.031254,44.3491751 L238.381895,101.264395 C245.775644,90.397949 251.097019,80.9197072 254.34602,72.8296692 C259.157803,60.8482913 247.842797,94.3129634 238.846832,103.599388 L248.309767,151.050636 C248.319342,150.985247 248.329766,150.92189 248.34104,150.860564 C261.351147,139.420423 269.568384,130.570561 272.992752,124.310978 C272.352814,128.755441 256.150302,149.012771 248.898751,154.011236 L257.603444,197.655386 C257.63052,197.334334 257.653752,197.123397 257.653752,197.123397 C257.653752,197.123397 269.097442,188.375389 272.992752,182.096672 C272.742365,184.713469 262.978776,196.05204 258.116152,200.229748 L265.298493,236.247125 L259.825398,236.247125 L253.315454,198.155078 C243.730152,195.688804 234.928101,187.962045 231.306067,183.594099 C239.368545,190.303594 246.460512,194.005043 252.581969,194.698448 C252.704493,195.778581 252.916816,196.743388 253.21894,197.592871 L234.888265,90.3168021 C234.871996,90.6128587 234.841816,90.9063217 234.797727,91.1971908 C224.179187,83.2025307 216.388212,74.2875009 211.424802,64.4521014 C213.195414,63.8687616 218.435575,78.3022046 234.522045,88.1848725 L227.031254,44.3491751 Z M201.912199,127.921767 C209.150312,135.589113 223.160419,140.986472 243.942519,144.113842 C243.872435,145.016033 243.872435,146.061857 243.942519,147.251315 C223.729438,144.879052 208.090033,136.266236 201.912199,127.921767 Z" id="形状结合" fill="url(#linearGradient-7)"></path>
            </g>
        </g>
        <path d="M628.335967,793.445064 C607.192322,803.475408 616.579582,806.386112 624.505822,809.422844 C639.059553,814.998727 633.910667,822.383656 627.883737,829.35794 C618.96371,839.680078 546.064991,871.792965 461.194585,865.124215 C382.053826,858.918195 389.324874,826.758489 407.105465,810.127443 C421.429584,796.762724 487.133696,761.785811 567.084079,756.110569 C615.194435,752.680926 636.805172,757.988706 641.662916,763.731997 C649.696879,773.245173 651.877346,782.271505 628.335967,793.445064 Z" id="路径" fill="url(#linearGradient-11)" fill-rule="nonzero" opacity="0.4" transform="translate(521.375527, 810.527261) scale(-1, 1) rotate(8.000000) translate(-521.375527, -810.527261)"></path>
        <g transform="translate(101.864686, 293.598382)" fill-rule="nonzero">
            <path d="M138.220793,500.693462 L138.220793,435.184352 L160,435.184352 L160,401.400857 L138.220793,401.400857 L138.220793,239 L102.379421,239 L102.379421,401.400857 L52.3043944,401.400857 C48.3029653,401.400857 45.0446588,400.429082 42.5294748,398.485531 C39.214005,395.741693 37.5562701,392.54055 37.5562701,388.882101 C37.5562701,387.624509 37.8420865,384.937835 38.4137192,380.822079 L38.4137192,380.822079 L60.0214362,239 L24.5230439,239 L0.514469453,392.997856 C0.171489818,395.284387 0,397.570918 0,399.857449 C0,407.403001 1.48624509,413.519471 4.45873526,418.20686 C11.6613076,429.525188 21.3219007,435.184352 33.4405145,435.184352 L33.4405145,435.184352 L102.379421,435.184352 L102.379421,500.693462 L138.220793,500.693462 Z" id="4" fill="url(#linearGradient-12)"></path>
            <path d="M410,0 C542.54834,0 650,107.45166 650,240 C650,372.54834 542.54834,480 410,480 C277.45166,480 170,372.54834 170,240 C170,107.45166 277.45166,0 410,0 Z M410,80 C321.63444,80 250,151.63444 250,240 C250,328.36556 321.63444,400 410,400 C498.36556,400 570,328.36556 570,240 C570,151.63444 498.36556,80 410,80 Z" id="椭圆形" fill="url(#linearGradient-13)"></path>
            <path d="M798.220793,500.693462 L798.220793,435.184352 L820,435.184352 L820,401.400857 L798.220793,401.400857 L798.220793,239 L762.379421,239 L762.379421,401.400857 L712.304394,401.400857 C708.302965,401.400857 705.044659,400.429082 702.529475,398.485531 C699.214005,395.741693 697.55627,392.54055 697.55627,388.882101 C697.55627,387.624509 697.842086,384.937835 698.413719,380.822079 L698.413719,380.822079 L720.021436,239 L684.523044,239 L660.514469,392.997856 C660.17149,395.284387 660,397.570918 660,399.857449 C660,407.403001 661.486245,413.519471 664.458735,418.20686 C671.661308,429.525188 681.321901,435.184352 693.440514,435.184352 L693.440514,435.184352 L762.379421,435.184352 L762.379421,500.693462 L798.220793,500.693462 Z" id="4" fill="url(#linearGradient-12)"></path>
        </g>
        <g id="人物" transform="translate(420.074837, 441.935169)" fill-rule="nonzero">
            <path d="M95.0550763,22.0688135 C101.879981,22.7121964 108.200762,25.9728454 112.715966,31.1793907 C114.132647,32.756953 115.323058,34.5261664 116.253235,36.4351585 L116.293405,36.5225974 L116.112291,35.5877346 C118.277767,36.2064495 119.2046,40.0902425 119.262208,44.8040161 L119.263872,44.9822676 C124.473285,43.5571814 128.186794,59.534081 116.857783,59.953278 C116.451565,61.0180928 116.006142,61.9286802 115.530064,62.6255768 C112.667246,66.8162469 109.540494,72.1793032 105.098613,75.4131808 L105.137583,87.1360451 L81.9684794,87.4632084 L82.0685157,73.6968838 C80.2011536,72.1638083 78.5768856,70.2873057 77.2971487,68.1115158 C75.605677,65.5382916 74.2071026,62.8010352 73.1160511,59.9516295 L73.5715437,59.9263008 C60.0549593,60.8781368 64.5901813,42.2779892 70.2933607,45.2052211 C70.2852389,44.5813578 70.2909157,43.954428 70.3104232,43.3268271 C70.849648,38.146008 72.949472,33.2566819 76.3267702,29.31809 C80.9965298,23.9216999 88.0086454,21.2074787 95.0550763,22.0688135 Z M116.813405,39.1825974 L116.827945,39.5429986 C116.864334,40.412422 116.937113,41.2696 117.373783,42.0533055 L116.813405,39.1825974 Z M116.293405,36.5225974 L116.813405,39.1825974 L116.802359,38.8895918 C116.778194,38.3447671 116.736261,37.8011384 116.596604,37.2736534 L116.500442,36.9592193 L116.293405,36.5225974 Z" id="形状结合" fill="#EBB0B0"></path>
            <path d="M119.453452,47.2737155 C127.427098,39.547921 130.327072,13.738412 115.235402,7.21179689 C113.548212,5.14907383 109.960369,4.60184557 105.137583,4.53125014 C101.637473,4.44050016 101.243277,5.77996513 99.4543534,5.46466244 C97.6654295,5.14935975 95.0315396,0.90434926 88.2249362,0.0643542478 C84.5418576,-0.461150233 73.4205452,2.31163556 71.0002365,5.46466244 C66.2560366,9.02957878 60.0892406,17.7053138 58.71044,28.5868596 C57.2913233,39.4879984 62.8982805,44.8998375 67.5694161,53.1804693 C71.8838796,50.447846 72.9361877,44.1417922 75.9878814,40.0428573 C80.2185199,35.0685183 85.5506717,31.146309 91.5620422,28.5868596 C104.493888,26.6884458 110.688629,26.6884458 116.511332,38.4002776 C116.511332,38.4002776 117.492039,41.3580902 119.453452,47.2737155 Z" id="路径" fill="#131322"></path>
            <path d="M82.4967771,77.6956074 C86.1639259,79.9823454 90.4749766,83.8300442 94.6063371,83.9102808 C97.7308493,84.0908759 101.994066,79.5810568 104.718924,77.6956074 C117.255915,78.2874639 139.985043,84.7104351 159.229143,99.4683474 C159.229143,156.531533 153.561971,166.700307 146.20971,198.819406 C146.008079,200.225003 125.192675,236.794786 121.206275,238.850848 C105.591581,246.844077 93.5192015,245.348929 76.4136289,243.321578 C73.0795485,242.910365 54.0535461,226.197591 51.5529858,223.720287 C49.5507256,221.714373 39.5819581,199.762159 37.3169578,193.714328 C35.0519575,187.666497 31.6028633,176.737722 31.3401233,170.188413 C30.6425032,152.76705 29.4727335,123.24948 29.229143,101.391947 C43.5775563,80.2880458 66.9679352,82.0485526 82.4967771,77.6956074 Z" id="路径" fill="url(#linearGradient-14)"></path>
            <rect id="矩形" fill="url(#linearGradient-15)" x="73.3796336" y="90.6641147" width="38" height="56" rx="4"></rect>
            <path d="M61.7743777,133.533999 C67.7940614,128.37257 73.6999191,124.924918 79.4919506,123.191043 C84.2823482,123.1689 83.3000372,124.711653 80.8398354,125.431786 C83.2474777,126.084787 94.3509507,128.414158 88.179998,143.988639 C83.3880299,148.288276 71.8422272,153.965103 62.2488136,149.534779 C57.1589318,146.210111 57.0007865,140.876518 61.7743777,133.533999 Z" id="路径-109" fill="#EFBA9E" transform="translate(74.166014, 137.166923) rotate(-31.000000) translate(-74.166014, -137.166923)"></path>
            <path d="M25.3227714,101.93062 C34.1648638,91.1869349 42.709671,90.1748775 50.9571927,98.8944481 C60.3189983,107.905993 56.4067643,166.059239 50.9571927,201.995046 C38.2447025,217.557812 22.3491167,208.168235 18.0816159,195.306144 C8.82055904,155.666268 11.2342775,124.541094 25.3227714,101.93062 Z" id="路径-2" fill="url(#linearGradient-16)"></path>
            <path d="M27.8081,189.115382 C31.5520311,171.832804 42.4138887,156.077708 60.3936726,141.850093 C66.8927416,139.422898 74.263441,141.742056 76.0060096,150.607639 C77.8558262,155.993406 68.3716287,199.045259 46.3732571,210.109873 C30.5373773,213.352053 24.3489916,206.353889 27.8081,189.115382 Z" id="路径-3" fill="url(#linearGradient-17)"></path>
            <path d="M99.970438,133.533999 C105.990122,128.37257 111.895979,124.924918 117.688011,123.191043 C122.478409,123.1689 121.496098,124.711653 119.035896,125.431786 C121.443538,126.084787 132.547011,128.414158 126.376058,143.988639 C121.58409,148.288276 110.038287,153.965103 100.444874,149.534779 C95.3549921,146.210111 95.1968468,140.876518 99.970438,133.533999 Z" id="路径-109" fill="#EFBA9E" transform="translate(112.362075, 137.166923) scale(-1, 1) rotate(-31.000000) translate(-112.362075, -137.166923)"></path>
            <path d="M142.673821,101.93062 C151.515913,91.1869349 160.06072,90.1748775 168.308242,98.8944481 C177.670048,107.905993 173.757814,166.059239 168.308242,201.995046 C155.595752,217.557812 139.700166,208.168235 135.432665,195.306144 C126.171608,155.666268 128.585327,124.541094 142.673821,101.93062 Z" id="路径-2" fill="url(#linearGradient-18)" transform="translate(151.939569, 151.572374) scale(-1, 1) translate(-151.939569, -151.572374)"></path>
            <path d="M111.226483,189.115382 C114.970414,171.832804 125.832272,156.077708 143.812056,141.850093 C150.311125,139.422898 157.681824,141.742056 159.424393,150.607639 C161.274209,155.993406 151.790012,199.045259 129.79164,210.109873 C113.955761,213.352053 107.767375,206.353889 111.226483,189.115382 Z" id="路径-3" fill="url(#linearGradient-19)" transform="translate(134.973236, 175.913510) scale(-1, 1) translate(-134.973236, -175.913510)"></path>
            <path d="M14.2861067,265.798743 C3.18104752,227.132076 7.24291323,208.097522 26.4717038,208.69508 L76.3796336,235.324789 C88.0766534,243.065871 99.0139979,243.065871 109.191667,235.324789 C124.459751,222.925059 141.042385,214.048489 158.939569,208.69508 C182.598265,210.800191 183.264724,232.318045 160.938946,273.248644 C136.563808,272.429914 89.6686812,272.429914 20.2535654,273.248644 C17.6515252,272.122947 15.6623723,269.639647 14.2861067,265.798743 Z" id="路径-4" fill="url(#linearGradient-20)"></path>
            <path d="M37.2494795,375.996583 C37.3918925,381.40191 36.1813814,384.104573 37.9437432,386.727747 C39.7061049,389.35092 47.0281068,391.761918 50.5945888,389.987908 C55.1159842,387.738913 62.6686271,383.357387 64.8191223,382.169942 C66.9696176,380.982498 81.5491017,372.442448 81.9137781,367.058363 C82.2784545,361.674278 73.8318364,360.075374 63.8718225,363.811408 C53.9118085,367.547443 40.0443359,374.115318 40.0443359,374.115318 L37.2494795,375.996583 Z" id="路径" fill="#333333" transform="translate(59.450280, 376.186962) scale(-1, 1) rotate(94.000000) translate(-59.450280, -376.186962)"></path>
            <path d="M100.249479,375.996583 C100.391893,381.40191 99.1813814,384.104573 100.943743,386.727747 C102.706105,389.35092 110.028107,391.761918 113.594589,389.987908 C118.115984,387.738913 125.668627,383.357387 127.819122,382.169942 C129.969618,380.982498 144.549102,372.442448 144.913778,367.058363 C145.278454,361.674278 136.831836,360.075374 126.871822,363.811408 C116.911808,367.547443 103.044336,374.115318 103.044336,374.115318 L100.249479,375.996583 Z" id="路径备份-2" fill="#333333" transform="translate(122.450280, 376.186962) rotate(94.000000) translate(-122.450280, -376.186962)"></path>
            <path d="M0.797429065,239.965041 C0.797429065,239.965041 -5.37185013,208.393427 16.6086688,201.306144 C38.5891877,194.21886 47.7601162,208.48443 54.6051982,220.635593 C56.7566147,232.244976 64.0151973,275.832672 76.3809463,351.398681 C68.6123732,358.62456 58.5751942,361.208721 46.2694093,359.151165 C41.2556827,342.560142 0.797429065,239.965041 0.797429065,239.965041 Z" id="路径-5" fill="url(#linearGradient-21)"></path>
            <path d="M105.797429,239.965041 C105.797429,239.965041 99.6281499,208.393427 121.608669,201.306144 C143.589188,194.21886 152.760116,208.48443 159.605198,220.635593 C161.756615,232.244976 169.015197,275.832672 181.380946,351.398681 C173.612373,358.62456 163.575194,361.208721 151.269409,359.151165 C146.255683,342.560142 105.797429,239.965041 105.797429,239.965041 Z" id="路径-5备份" fill="url(#linearGradient-21)" transform="translate(143.190473, 279.625864) scale(-1, 1) translate(-143.190473, -279.625864)"></path>
        </g>
        <g id="石头" transform="translate(876.000000, 738.000000)" fill-rule="nonzero">
            <path d="M42.3959886,49.5164474 C45.3020221,27.3131416 37.8366926,15.351725 20,13.6321975 C44.1424324,11.3251757 60.1235326,26.0173187 60.3823024,49.5164474 C55.3770448,49.6908524 49.3816069,49.6908524 42.3959886,49.5164474 Z" id="路径-38" fill="url(#linearGradient-22)"></path>
            <path d="M54.120901,49.6472512 C58.8339305,27.2411086 53.0371808,10.6920249 36.7306519,0 C57.5522392,6.56657635 72.5106644,16.4351231 77.3732031,49.6472512 C71.0188781,50.1175829 63.2681108,50.1175829 54.120901,49.6472512 Z" id="路径-39" fill="url(#linearGradient-23)"></path>
            <path d="M81.0677818,50 C78.9833933,28.7044584 86.627466,16.502709 104,13.3947519 C87.886355,12.9867807 69.9112687,11.9056548 57.0519275,50 C67.9497157,49.6502805 75.9550005,49.6502805 81.0677818,50 Z" id="路径-40" fill="url(#linearGradient-24)"></path>
            <path d="M31.4123189,63.9990036 C48.2570038,63.9990036 61,64.4087768 61,48.6086537 C61,32.8085305 47.3446849,20 30.5,20 C13.6553151,20 0,32.8085305 0,48.6086537 C0,64.4087768 14.567634,63.9990036 31.4123189,63.9990036 Z" id="椭圆形" fill="url(#linearGradient-25)"></path>
            <path d="M64.5683298,63.9993886 C75.0617401,63.9993886 83,64.2508403 83,54.5553102 C83,44.8597801 74.4934102,37 64,37 C53.5065898,37 45,44.8597801 45,54.5553102 C45,64.2508403 54.0749196,63.9993886 64.5683298,63.9993886 Z" id="椭圆形备份-6" fill="url(#linearGradient-26)"></path>
        </g>
        <g id="草" transform="translate(203.060113, 727.713352)" fill-rule="nonzero">
            <path d="M43.9051261,63.6286814 C42.2263645,55.9871035 37.3237759,50.6453695 29.1973603,47.6034794 C19.9172905,44.6203861 14.8329924,41.0744694 20.6399876,38.5033511 C25.5436773,38.1135528 36.0015321,34.2946145 43.9051261,57.1055335 C44.4551756,59.3160279 44.4551756,61.4904105 43.9051261,63.6286814 Z" id="路径-43" fill="url(#linearGradient-27)"></path>
            <path d="M44.3176632,64.840738 C39.4303186,46.5973461 33.8782959,33.2780512 27.6615952,24.8828532 C23.0968393,19.1458941 23.4166984,10.936736 27.6615952,9.08124849 C32.0066921,8.59804784 40.0148411,7.85069183 46.0446075,39.2915559 C46.4254351,41.4541828 48.5501098,54.1059971 46.0446075,62.27112 C45.6737545,63.3917167 45.0981064,64.2482561 44.3176632,64.840738 Z" id="路径-44" fill="url(#linearGradient-28)"></path>
            <path d="M45.4464214,60.7202723 C47.6568996,52.5569753 47.3762554,41.9057539 44.6044888,28.7666082 C40.3647937,16.0293804 33.1281163,0.361197711 46.3183012,0 C51.6696211,0.72769912 58.1314791,6.33695657 55.6898493,34.2928457 C54.2019489,45.5736056 51.6142144,52.2376908 48.8984709,60.7202723 C47.9511221,61.2491925 46.800439,61.2491925 45.4464214,60.7202723 Z" id="路径-45" fill="url(#linearGradient-29)"></path>
            <path d="M48.0284816,63.8906874 C47.1436545,40.8080705 51.3681496,24.242664 60.7019669,14.1944678 C63.222484,10.836761 72.8116393,7.69203295 72.7754396,18.2175973 C71.774369,22.7435236 69.632291,32.4058109 57.2801827,47.1476164 C53.2108627,52.468361 50.5364063,60.243448 50.5103382,62.0664177 C50.4929594,63.2817308 49.6656739,63.8898207 48.0284816,63.8906874 Z" id="路径-46" fill="url(#linearGradient-30)"></path>
            <path d="M0,66.9384739 C9.24292109,65.2157556 14.3402664,63.7533131 15.2920358,62.5511465 C16.7196899,60.7478966 29.2966732,53.0053514 37.1396284,59.5270062 C38.8469149,57.3328548 44.3223492,55.6260825 47.4558228,59.5270062 C48.8894057,53.3682731 57.8327109,49.4240184 61.722246,50.0630031 C66.1024725,49.7202118 79.03356,49.8628336 80,66.9384739 C76.4718943,67.0206137 49.8052276,67.0206137 0,66.9384739 Z" id="路径-47" fill="url(#linearGradient-31)"></path>
        </g>
    </g>
</svg>
